# xmcd CD database file
#
# Track frame offsets:
#	150
#	13719
#	26592
#	39295
#	54543
#	67609
#	80253
#	92004
#	111235
#	121761
#	138243
#	152929
#
# Disc length: 2203 seconds
#
# Revision: 0
# Processed by: cddbd v1.5.2PL0 Copyright (c) Steve Scherf et al.
# Submitted via: CDex 1.70beta3
#
DISCID=8a08990c
DTITLE=George Lewis - Jazz At Preservation Hall IV
DYEAR=1962
DGENRE=Jazz
TTITLE0=Salutation March
TTITLE1=Salty Dog
TTITLE2=Winin' Boy Blues
TTITLE3=Pork Chops
TTITLE4=Down By The Reiverside
TTITLE5=Linger Awhile
TTITLE6=In The Sweet By and By
TTITLE7=Burgundy Street Blues
TTITLE8=Indian Sagua
TTITLE9=Careless Love
TTITLE10=Listen To The Mockingbird
TTITLE11=St. Louis Blues
EXTD=YEAR: 1962
EXTT0=
EXTT1=
EXTT2=
EXTT3=
EXTT4=
EXTT5=
EXTT6=
EXTT7=
EXTT8=
EXTT9=
EXTT10=
EXTT11=
PLAYORDER=
